<svg width="20" height="20" viewBox="0 0 20 20" xmlns="http://www.w3.org/2000/svg"><title>Dribbble</title><path d="M19.797 7.987c-.13-.642-.33-1.275-.584-1.88-.25-.593-.56-1.165-.922-1.698-.356-.53-.768-1.03-1.22-1.48-.452-.454-.95-.864-1.48-1.22-.532-.364-1.105-.673-1.697-.924-.604-.254-1.237-.452-1.88-.583C11.355.068 10.677 0 10 0c-.677 0-1.355.068-2.014.203-.642.13-1.275.33-1.88.583-.592.25-1.164.56-1.697.923-.532.356-1.03.766-1.482 1.22-.452.45-.862.95-1.22 1.48-.36.532-.67 1.104-.92 1.697-.256.605-.453 1.238-.585 1.88C.068 8.643 0 9.32 0 10c0 .68.068 1.356.203 2.014.132.642.33 1.275.584 1.878.25.593.56 1.167.922 1.7.356.53.766 1.026 1.218 1.48.453.452.95.86 1.48 1.22.534.36 1.106.67 1.7.92.603.258 1.236.453 1.878.583.66.137 1.337.205 2.014.205.677 0 1.355-.068 2.013-.205.643-.13 1.276-.325 1.88-.582.592-.25 1.165-.56 1.698-.922.53-.357 1.028-.766 1.48-1.22.452-.452.864-.948 1.22-1.477.362-.534.673-1.108.923-1.7.255-.604.453-1.237.584-1.88.135-.657.203-1.334.203-2.014 0-.68-.068-1.357-.203-2.013zm-1.26 1.927c-.123-.027-3.014-.65-5.948-.28-.06-.146-.122-.293-.185-.44-.178-.418-.37-.832-.568-1.24C15.21 6.58 16.58 4.6 16.595 4.575c1.198 1.456 1.922 3.314 1.942 5.34zM15.64 3.59c-.02.034-1.237 1.885-4.46 3.093C9.72 4 8.115 1.87 7.987 1.7c.644-.156 1.318-.24 2.012-.24 2.163 0 4.136.806 5.64 2.13zM7.956 1.708c0 .002-.002.003-.002.003s-.01 0-.026.004c.01-.002.02-.003.028-.007zm-1.6.568c.115.153 1.694 2.295 3.172 4.922-4.1 1.09-7.658 1.046-7.884 1.043.555-2.646 2.332-4.84 4.713-5.965zM1.46 10c0-.092.004-.18.008-.27.15.003 4.37.098 8.767-1.218.245.48.48.967.693 1.453-.114.03-.225.064-.337.102-4.607 1.49-6.945 5.636-6.945 5.636l.003.004C2.288 14.193 1.46 12.193 1.46 10zM10 18.54c-2.067 0-3.963-.734-5.44-1.957.113.092.192.15.192.15s1.637-3.57 6.7-5.336l.058-.018c1.202 3.123 1.698 5.737 1.824 6.483-1.024.437-2.15.678-3.334.678zm4.772-1.457c-.087-.516-.542-3.02-1.663-6.1 2.757-.44 5.145.315 5.323.373-.38 2.38-1.743 4.432-3.66 5.727z" fill="#FFF" fill-rule="evenodd"/></svg>