<svg width="20" height="20" viewBox="0 0 20 20" xmlns="http://www.w3.org/2000/svg"><title>Instagram</title><path d="M16.135 0H3.865C1.733 0 0 1.733 0 3.865v12.27c0 2.133 1.733 3.866 3.865 3.866h12.27C18.267 20 20 18.27 20 16.137V3.866C20 1.732 18.267 0 16.135 0zm1.11 2.305h.442v3.39l-3.38.01-.012-3.39 2.95-.01zm-10.1 5.642c.64-.886 1.68-1.467 2.856-1.467 1.175 0 2.214.58 2.854 1.467.418.58.667 1.287.667 2.054 0 1.94-1.58 3.52-3.52 3.52S6.48 11.94 6.48 10c0-.766.25-1.474.666-2.053zm10.906 8.19c0 1.056-.857 1.914-1.915 1.914H3.865c-1.058 0-1.916-.857-1.916-1.914v-8.19h2.984c-.258.636-.403 1.33-.403 2.055 0 3.016 2.454 5.47 5.47 5.47 3.016 0 5.47-2.454 5.47-5.47 0-.725-.147-1.418-.404-2.053h2.985v8.19z" fill="#FFF" fill-rule="evenodd"/></svg>