<svg width="21" height="19" viewBox="0 0 21 19" xmlns="http://www.w3.org/2000/svg"><title>LinkedIn</title><path d="M1.444 6.003h3.9v12.475h-3.9V6.003zm1.85-1.56h-.028C1.856 4.443.94 3.49.94 2.28c0-1.232.943-2.166 2.382-2.166 1.437 0 2.323.93 2.35 2.163 0 1.208-.913 2.166-2.378 2.166zM20.94 18.478h-4.42v-6.455c0-1.69-.69-2.844-2.212-2.844-1.163 0-1.81.778-2.11 1.528-.113.27-.096.644-.096 1.02v6.75h-4.38s.058-11.435 0-12.475h4.38V7.96c.26-.855 1.658-2.077 3.892-2.077 2.77 0 4.947 1.794 4.947 5.66v6.935z" fill="#FFF" fill-rule="evenodd"/></svg>