<svg width="20" height="17" viewBox="0 0 20 17" xmlns="http://www.w3.org/2000/svg"><title>Twitter</title><path d="M20 1.924c-.736.326-1.527.547-2.356.646.848-.507 1.498-1.312 1.803-2.27-.793.47-1.67.812-2.606.995C16.095.498 15.028 0 13.847 0c-2.264 0-4.1 1.837-4.1 4.103 0 .32.033.634.103.934C6.44 4.867 3.416 3.234 1.39.75 1.04 1.356.837 2.062.837 2.813c0 1.423.724 2.68 1.825 3.415-.672-.02-1.306-.208-1.86-.513v.05c0 1.99 1.414 3.648 3.294 4.023-.345.097-.708.145-1.083.145-.264 0-.522-.025-.77-.073.52 1.63 2.036 2.817 3.83 2.848-1.403 1.1-3.172 1.757-5.094 1.757-.332 0-.66-.018-.98-.056 1.816 1.163 3.973 1.843 6.29 1.843 7.548 0 11.673-6.25 11.673-11.674 0-.18-.003-.357-.01-.532.8-.58 1.5-1.302 2.047-2.124" fill="#FFF" fill-rule="evenodd"/></svg>